<svg width="137" height="137" viewBox="0 0 137 137" fill="none" xmlns="http://www.w3.org/2000/svg">
<path d="M55.9875 114.167V88.0396C50.2906 87.6134 44.7078 87.014 39.2392 86.2415C33.7707 85.4728 28.3021 84.3882 22.8335 82.9877L24.1464 77.2794C31.3884 79.1061 38.6989 80.4038 46.0778 81.1725C53.4568 81.9412 60.9233 82.3275 68.4773 82.3313C75.9438 82.3313 83.3723 81.945 90.7627 81.1725C98.1531 80.4 105.517 79.1023 112.854 77.2794L114.167 82.9877C108.679 84.3882 103.178 85.4785 97.664 86.2586C92.146 87.0426 86.5956 87.6515 81.0128 88.0853V114.167H55.9875ZM68.5173 73.1123C65.7849 73.1123 63.4882 72.1895 61.6273 70.3438C59.7702 68.4981 58.8417 66.211 58.8417 63.4824C58.8417 60.8337 59.7645 58.5561 61.6102 56.6495C63.4559 54.7429 65.743 53.7896 68.4716 53.7896C71.1203 53.7896 73.396 54.7353 75.2988 56.6267C77.2054 58.5142 78.1587 60.7842 78.1587 63.4367C78.1587 66.1691 77.2149 68.4638 75.3273 70.321C73.4398 72.1781 71.1698 73.1085 68.5173 73.1123ZM28.5418 57.0833C26.9435 57.0833 25.5925 56.5315 24.4889 55.4279C23.3853 54.3243 22.8335 52.9638 22.8335 51.3465C22.8335 49.7938 23.3853 48.458 24.4889 47.3392C25.5925 46.2242 26.9549 45.6667 28.5761 45.6667C30.1326 45.6667 31.4683 46.2223 32.5833 47.3335C33.6946 48.4409 34.2502 49.7881 34.2502 51.375C34.2502 52.9733 33.6946 54.3243 32.5833 55.4279C31.4759 56.5315 30.1287 57.0833 28.5418 57.0833ZM108.458 57.0833C106.86 57.0833 105.509 56.5315 104.406 55.4279C103.302 54.3243 102.75 52.9638 102.75 51.3465C102.75 49.7938 103.302 48.458 104.406 47.3392C105.509 46.2242 106.87 45.6667 108.487 45.6667C110.044 45.6667 111.379 46.2223 112.494 47.3335C113.609 48.4409 114.167 49.7881 114.167 51.375C114.167 52.9733 113.611 54.3243 112.5 55.4279C111.393 56.5315 110.045 57.0833 108.458 57.0833ZM42.4816 36.2251C40.8871 36.2251 39.5361 35.6733 38.4287 34.5697C37.3251 33.4661 36.7732 32.1056 36.7732 30.4882C36.7732 28.9355 37.3251 27.6017 38.4287 26.4867C39.5361 25.3678 40.8985 24.8084 42.5158 24.8084C44.0685 24.8084 45.4023 25.364 46.5174 26.4752C47.6324 27.5865 48.1899 28.9336 48.1899 30.5168C48.1899 32.1151 47.6362 33.4661 46.5288 34.5697C45.4176 35.6733 44.0685 36.2251 42.4816 36.2251ZM94.5188 36.2251C92.9204 36.2251 91.5694 35.6733 90.4658 34.5697C89.3622 33.4661 88.8104 32.1056 88.8104 30.4882C88.8104 28.9355 89.3622 27.6017 90.4658 26.4867C91.5694 25.3678 92.9299 24.8084 94.5473 24.8084C96.1 24.8084 97.4357 25.364 98.5545 26.4752C99.6696 27.5865 100.227 28.9336 100.227 30.5168C100.227 32.1151 99.6715 33.4661 98.5602 34.5697C97.449 35.6733 96.1019 36.2251 94.5188 36.2251ZM68.5002 28.5417C66.9018 28.5417 65.5509 27.9899 64.4472 26.8862C63.3436 25.7826 62.7918 24.4222 62.7918 22.8048C62.7918 21.2483 63.3436 19.9126 64.4472 18.7975C65.5509 17.6825 66.9132 17.125 68.5344 17.125C70.0871 17.125 71.4228 17.6806 72.5417 18.7918C73.6529 19.8993 74.2085 21.2464 74.2085 22.8333C74.2085 24.4317 73.6529 25.7826 72.5417 26.8862C71.4342 27.9899 70.0871 28.5417 68.5002 28.5417Z" fill="#FFCA00"/>
</svg>
