<svg width="28" height="22" viewBox="0 0 28 22" fill="none" xmlns="http://www.w3.org/2000/svg">
<path d="M12.25 1.3749C11.6681 1.3749 11.2 1.83467 11.2 2.40615C11.2 2.97764 11.6681 3.4374 12.25 3.4374H14.7744L15.4919 4.73936L11.2 8.2499L9.21812 6.30342C8.69312 5.78779 7.98 5.4999 7.23625 5.4999H2.8C2.02562 5.4999 1.4 6.11436 1.4 6.8749V8.2499H5.6C9.4675 8.2499 12.6 11.3265 12.6 15.1249C12.6 15.5976 12.5519 16.0573 12.46 16.4999H15.54C15.4481 16.0573 15.4 15.5976 15.4 15.1249C15.4 12.8819 16.4937 10.8882 18.1869 9.6335L18.8606 10.8624C17.605 11.8722 16.8 13.4062 16.8 15.1249C16.8 18.1628 19.3069 20.6249 22.4 20.6249C25.4931 20.6249 28 18.1628 28 15.1249C28 12.087 25.4931 9.6249 22.4 9.6249C21.8094 9.6249 21.2406 9.71514 20.7069 9.88272L18.2962 5.4999H21C21.7744 5.4999 22.4 4.88545 22.4 4.1249V2.7499C22.4 1.98936 21.7744 1.3749 21 1.3749H20.1075C19.7794 1.3749 19.4644 1.48662 19.2106 1.69287L17.1369 3.39014L16.5244 2.27295C16.2181 1.71865 15.6275 1.37061 14.9844 1.37061L12.25 1.3749ZM20.2431 13.3718L21.4769 15.6147C21.7525 16.1175 22.3913 16.3022 22.8988 16.0315C23.4062 15.7608 23.5987 15.1335 23.3231 14.6351L22.0894 12.3921C22.19 12.3792 22.295 12.3749 22.4 12.3749C23.9444 12.3749 25.2 13.6081 25.2 15.1249C25.2 16.6417 23.9444 17.8749 22.4 17.8749C20.8556 17.8749 19.6 16.6417 19.6 15.1249C19.6 14.4589 19.8406 13.8487 20.2431 13.3718ZM8.19438 16.1562C7.77875 17.1659 6.7725 17.8749 5.6 17.8749C4.05562 17.8749 2.8 16.6417 2.8 15.1249C2.8 13.6081 4.05562 12.3749 5.6 12.3749C6.77688 12.3749 7.78312 13.0839 8.19438 14.0937H11.0994C10.6094 11.5499 8.33437 9.6249 5.6 9.6249C2.50688 9.6249 0 12.087 0 15.1249C0 18.1628 2.50688 20.6249 5.6 20.6249C8.33437 20.6249 10.6094 18.6999 11.1038 16.1562H8.19875H8.19438ZM5.6 16.4999C5.9713 16.4999 6.3274 16.355 6.58995 16.0972C6.8525 15.8393 7 15.4896 7 15.1249C7 14.7602 6.8525 14.4105 6.58995 14.1526C6.3274 13.8948 5.9713 13.7499 5.6 13.7499C5.2287 13.7499 4.8726 13.8948 4.61005 14.1526C4.3475 14.4105 4.2 14.7602 4.2 15.1249C4.2 15.4896 4.3475 15.8393 4.61005 16.0972C4.8726 16.355 5.2287 16.4999 5.6 16.4999Z" fill="#FFCA00"/>
</svg>
