<svg width="42" height="42" viewBox="0 0 42 42" fill="none" xmlns="http://www.w3.org/2000/svg">
<path d="M10.7327 36.75C8.67125 36.75 7 35.035 7 32.9175V17.514C7 16.3502 7.51625 15.2477 8.4 14.5215L18.6672 6.08999C19.3233 5.54676 20.1483 5.24951 21 5.24951C21.8517 5.24951 22.6767 5.54676 23.3328 6.08999L33.5982 14.5215C34.4837 15.2477 35 16.3502 35 17.514V32.9175C35 35.035 33.3288 36.75 31.2673 36.75H10.7327Z" stroke="#5B4905" stroke-width="1.5" stroke-linecap="round" stroke-linejoin="round"/>
<path d="M16.625 36.75V27.125C16.625 26.1967 16.9937 25.3065 17.6501 24.6501C18.3065 23.9937 19.1967 23.625 20.125 23.625H21.875C22.8033 23.625 23.6935 23.9937 24.3499 24.6501C25.0063 25.3065 25.375 26.1967 25.375 27.125V36.75" stroke="#5B4905" stroke-width="1.5" stroke-linecap="round" stroke-linejoin="round"/>
</svg>
