<svg width="24" height="20" viewBox="0 0 24 20" fill="none" xmlns="http://www.w3.org/2000/svg">
<path d="M23.98 7.79875C23.9657 7.73263 23.9448 7.66814 23.9175 7.60625L21.5562 2.09625C21.0119 0.823125 19.6875 0 18.1806 0H5.81938C4.31376 0 2.98813 0.823125 2.44438 2.09625L0.0806341 7.60625C0.026879 7.73053 -0.000571755 7.86459 9.02675e-06 8V19C9.02675e-06 19.2652 0.105366 19.5196 0.292902 19.7071C0.480439 19.8946 0.734792 20 1.00001 20H3.00001C3.26522 20 3.51958 19.8946 3.70711 19.7071C3.89465 19.5196 4.00001 19.2652 4.00001 19V18H20V19C20 19.2652 20.1054 19.5196 20.2929 19.7071C20.4804 19.8946 20.7348 20 21 20H23C23.2652 20 23.5196 19.8946 23.7071 19.7071C23.8946 19.5196 24 19.2652 24 19V8C24.0001 7.93241 23.9934 7.86498 23.98 7.79875ZM5.00001 14C4.60444 14 4.21777 13.8827 3.88887 13.6629C3.55997 13.4432 3.30362 13.1308 3.15225 12.7654C3.00087 12.3999 2.96127 11.9978 3.03844 11.6098C3.11561 11.2219 3.30609 10.8655 3.58579 10.5858C3.8655 10.3061 4.22186 10.1156 4.60983 10.0384C4.99779 9.96126 5.39992 10.0009 5.76537 10.1522C6.13083 10.3036 6.44318 10.56 6.66294 10.8889C6.88271 11.2178 7.00001 11.6044 7.00001 12C7.00001 12.5304 6.78929 13.0391 6.41422 13.4142C6.03915 13.7893 5.53044 14 5.00001 14ZM19 14C18.6044 14 18.2178 13.8827 17.8889 13.6629C17.56 13.4432 17.3036 13.1308 17.1522 12.7654C17.0009 12.3999 16.9613 11.9978 17.0384 11.6098C17.1156 11.2219 17.3061 10.8655 17.5858 10.5858C17.8655 10.3061 18.2219 10.1156 18.6098 10.0384C18.9978 9.96126 19.3999 10.0009 19.7654 10.1522C20.1308 10.3036 20.4432 10.56 20.6629 10.8889C20.8827 11.2178 21 11.6044 21 12C21 12.5304 20.7893 13.0391 20.4142 13.4142C20.0391 13.7893 19.5304 14 19 14ZM2.51626 7L4.28063 2.88437C4.50688 2.35562 5.12501 2 5.81938 2H18.1806C18.8744 2 19.4931 2.35562 19.7194 2.88437L21.4837 7H2.51626Z" fill="#FFCA00"/>
</svg>
