<svg width="50" height="50" viewBox="0 0 50 50" fill="none" xmlns="http://www.w3.org/2000/svg">
<path d="M19.0686 11.267C21.7082 6.53366 23.0269 4.16699 24.9998 4.16699C26.9728 4.16699 28.2915 6.53366 30.9311 11.267L31.6144 12.492C32.3644 13.8378 32.7394 14.5107 33.3228 14.9545C33.9061 15.3982 34.6353 15.5628 36.0936 15.892L37.4186 16.192C42.5436 17.3524 45.104 17.9316 45.7144 19.892C46.3228 21.8503 44.5769 23.8941 41.0832 27.9795L40.179 29.0357C39.1873 30.1962 38.6894 30.7774 38.4665 31.4941C38.2436 32.2128 38.3186 32.9878 38.4686 34.5357L38.6061 35.9462C39.1332 41.3982 39.3978 44.1232 37.8019 45.3337C36.2061 46.5441 33.8061 45.4399 29.0103 43.2316L27.7665 42.6607C26.404 42.0316 25.7228 41.7191 24.9998 41.7191C24.2769 41.7191 23.5957 42.0316 22.2332 42.6607L20.9915 43.2316C16.1936 45.4399 13.7936 46.5441 12.1998 45.3357C10.6019 44.1232 10.8665 41.3982 11.3936 35.9462L11.5311 34.5378C11.6811 32.9878 11.7561 32.2128 11.5311 31.4962C11.3103 30.7774 10.8123 30.1962 9.82067 29.0378L8.91651 27.9795C5.42276 23.8962 3.67692 21.8524 4.28526 19.892C4.89359 17.9316 7.45817 17.3503 12.5832 16.192L13.9082 15.892C15.3644 15.5628 16.0915 15.3982 16.6769 14.9545C17.2623 14.5107 17.6353 13.8378 18.3853 12.492L19.0686 11.267Z" fill="#C5C5C5"/>
</svg>
