<svg width="137" height="107" viewBox="0 0 137 107" fill="none" xmlns="http://www.w3.org/2000/svg">
<path d="M30.8723 106.756C30.9024 106.776 30.9425 106.766 30.9726 106.786C31.2087 106.919 31.4736 106.992 31.7445 107C31.8935 107 32.0419 106.979 32.1855 106.94L68.5006 97.0221L104.816 106.94C104.959 106.979 105.108 107 105.257 107C105.527 106.991 105.79 106.916 106.025 106.783C106.059 106.766 106.095 106.772 106.125 106.752L136.199 88.3618C136.51 88.1713 136.75 87.8842 136.883 87.5443C137.015 87.2044 137.033 86.8303 136.934 86.4793L120.28 27.9636C120.211 27.7203 120.088 27.4958 119.92 27.3069C119.752 27.118 119.544 26.9696 119.31 26.8731C119.077 26.7765 118.824 26.7342 118.572 26.7494C118.32 26.7645 118.074 26.8367 117.854 26.9605L101.274 36.2695C100.911 36.4989 100.649 36.8592 100.544 37.2758C100.439 37.6924 100.498 38.1336 100.709 38.508C100.919 38.8824 101.266 39.1615 101.676 39.2876C102.087 39.4136 102.53 39.377 102.914 39.1853L117.647 30.9095L133.375 86.1683L106.593 102.549L100.231 51.6207C100.176 51.1804 99.9487 50.7799 99.5987 50.5075C99.2487 50.235 98.8049 50.1128 98.3649 50.1678C97.9249 50.2228 97.5247 50.4504 97.2525 50.8007C96.9802 51.1509 96.8581 51.595 96.913 52.0353L103.285 103.058L70.1713 94.0127V84.8843C70.1713 84.4409 69.9953 84.0156 69.682 83.7021C69.3686 83.3886 68.9437 83.2124 68.5006 83.2124C68.0575 83.2124 67.6325 83.3886 67.3192 83.7021C67.0059 84.0156 66.8298 84.4409 66.8298 84.8843V94.0127L33.7126 103.058L40.0848 52.0353C40.112 51.8173 40.096 51.596 40.0378 51.3842C39.9795 51.1724 39.8801 50.9741 39.7453 50.8007C39.6105 50.6272 39.4429 50.4821 39.252 50.3735C39.0611 50.2649 38.8508 50.195 38.6329 50.1678C38.415 50.1406 38.1939 50.1566 37.9822 50.2149C37.7705 50.2731 37.5724 50.3726 37.3991 50.5075C37.2258 50.6424 37.0808 50.8101 36.9723 51.0011C36.8637 51.1921 36.7939 51.4027 36.7667 51.6207L30.4079 102.549L3.62605 86.1716L19.3543 30.9162L34.0868 39.192C34.4711 39.3837 34.9144 39.4203 35.3249 39.2943C35.7354 39.1682 36.0818 38.8891 36.2925 38.5147C36.5032 38.1402 36.5621 37.6991 36.4569 37.2825C36.3517 36.8659 36.0906 36.5056 35.7275 36.2762L19.1438 26.9639C18.9242 26.838 18.6786 26.7642 18.426 26.748C18.1734 26.7318 17.9205 26.7738 17.6866 26.8706C17.4527 26.9675 17.2441 27.1167 17.0768 27.3067C16.9094 27.4967 16.7878 27.7226 16.7213 27.967L0.0673964 86.4826C-0.0321832 86.8337 -0.014237 87.2077 0.118496 87.5476C0.251229 87.8875 0.491458 88.1746 0.802518 88.3651L30.8723 106.756Z" fill="#FFCA00"/>
<path d="M67.3673 78.1367C67.6741 78.4201 68.0757 78.5782 68.4931 78.5801C68.9106 78.582 69.3136 78.4274 69.6228 78.1468C70.7355 77.1336 96.9025 53.1054 96.9025 28.4219C96.9025 12.4822 84.4289 0 68.5001 0C52.5713 0 40.0977 12.4822 40.0977 28.4219C40.0977 52.6774 66.2546 77.1069 67.3673 78.1367ZM68.5001 3.34375C82.7849 3.34375 93.5611 14.124 93.5611 28.4219C93.5611 48.8087 73.5357 69.6737 68.5101 74.589C63.4946 69.6169 43.4391 48.4777 43.4391 28.4219C43.4391 14.124 54.2153 3.34375 68.5001 3.34375Z" fill="#FFCA00"/>
<path d="M83.538 28.4219C83.538 20.126 76.7916 13.375 68.5014 13.375C60.2113 13.375 53.4648 20.126 53.4648 28.4219C53.4648 36.7177 60.2113 43.4688 68.5014 43.4688C76.7916 43.4688 83.538 36.7177 83.538 28.4219ZM68.5014 40.125C62.0524 40.125 56.8063 34.8753 56.8063 28.4219C56.8063 21.9684 62.0524 16.7188 68.5014 16.7188C74.9505 16.7188 80.1966 21.9684 80.1966 28.4219C80.1966 34.8753 74.9505 40.125 68.5014 40.125Z" fill="#FFCA00"/>
</svg>
