<svg width="42" height="42" viewBox="0 0 42 42" fill="none" xmlns="http://www.w3.org/2000/svg">
<path d="M36.05 9.20498C35.9181 8.14539 35.4048 7.17011 34.606 6.46152C33.8073 5.75294 32.7778 5.35957 31.71 5.35498H10.2987C9.23365 5.35902 8.2063 5.74993 7.40792 6.45495C6.60954 7.15997 6.09453 8.13106 5.95875 9.18748L5.43375 13.51C5.4332 14.3583 5.61405 15.1969 5.96417 15.9696C6.31429 16.7422 6.82558 17.4311 7.46375 17.99V32.27C7.46375 33.4303 7.92468 34.5431 8.74516 35.3636C9.56563 36.184 10.6784 36.645 11.8387 36.645H30.1612C31.3216 36.645 32.4344 36.184 33.2548 35.3636C34.0753 34.5431 34.5362 33.4303 34.5362 32.27V17.99C35.176 17.4319 35.6889 16.7434 36.0406 15.9707C36.3922 15.198 36.5745 14.3589 36.575 13.51L36.05 9.20498ZM24.5175 34.895H17.5175V27.755C17.5175 27.0588 17.7941 26.3911 18.2863 25.8988C18.7786 25.4065 19.4463 25.13 20.1425 25.13H21.8925C22.5887 25.13 23.2564 25.4065 23.7487 25.8988C24.2409 26.3911 24.5175 27.0588 24.5175 27.755V34.895ZM32.795 32.27C32.795 32.9662 32.5184 33.6339 32.0262 34.1261C31.5339 34.6184 30.8662 34.895 30.17 34.895H26.2675V27.755C26.2675 26.5947 25.8066 25.4819 24.9861 24.6614C24.1656 23.8409 23.0528 23.38 21.8925 23.38H20.1425C18.9822 23.38 17.8694 23.8409 17.0489 24.6614C16.2284 25.4819 15.7675 26.5947 15.7675 27.755V34.895H11.8387C11.1426 34.895 10.4749 34.6184 9.98259 34.1261C9.49031 33.6339 9.21375 32.9662 9.21375 32.27V19.0225C9.90199 19.3053 10.6397 19.448 11.3837 19.4425C12.2428 19.4462 13.0922 19.2617 13.8722 18.9019C14.6522 18.5422 15.344 18.0158 15.8987 17.36C15.9378 17.3208 15.9841 17.2898 16.0352 17.2686C16.0862 17.2474 16.141 17.2365 16.1962 17.2365C16.2515 17.2365 16.3063 17.2474 16.3573 17.2686C16.4084 17.2898 16.4547 17.3208 16.4937 17.36C17.0485 18.0158 17.7403 18.5422 18.5203 18.9019C19.3003 19.2617 20.1497 19.4462 21.0087 19.4425C21.8714 19.4453 22.7244 19.2605 23.5085 18.901C24.2927 18.5414 24.9893 18.0156 25.55 17.36C25.5858 17.3215 25.6292 17.2908 25.6773 17.2698C25.7255 17.2487 25.7774 17.2377 25.83 17.2375C25.8852 17.2373 25.9399 17.2481 25.9909 17.2691C26.042 17.2901 26.0884 17.321 26.1275 17.36C26.6823 18.0158 27.374 18.5422 28.154 18.9019C28.9341 19.2617 29.7835 19.4462 30.6425 19.4425C31.3807 19.4457 32.1122 19.303 32.795 19.0225V32.27ZM30.6425 17.6925C30.0382 17.6948 29.4406 17.5662 28.8907 17.3155C28.3409 17.0647 27.8519 16.6978 27.4575 16.24C27.2605 16.0045 27.0142 15.815 26.736 15.685C26.4579 15.555 26.1546 15.4876 25.8475 15.4875H25.83C25.5243 15.4854 25.2219 15.5501 24.9438 15.6771C24.6657 15.804 24.4187 15.9902 24.22 16.2225C23.8141 16.6652 23.3206 17.0187 22.7708 17.2605C22.221 17.5023 21.6269 17.6272 21.0262 17.6272C20.4256 17.6272 19.8315 17.5023 19.2817 17.2605C18.7319 17.0187 18.2384 16.6652 17.8325 16.2225C17.6289 15.9916 17.3784 15.8067 17.0978 15.68C16.8172 15.5533 16.5129 15.4878 16.205 15.4878C15.8971 15.4878 15.5928 15.5533 15.3122 15.68C15.0316 15.8067 14.7811 15.9916 14.5775 16.2225C14.0252 16.867 13.2909 17.3294 12.471 17.5491C11.6511 17.7688 10.784 17.7355 9.9834 17.4535C9.18282 17.1715 8.48621 16.654 7.98501 15.969C7.48382 15.2839 7.20146 14.4634 7.175 13.615L7.7 9.41498C7.78415 8.78072 8.09409 8.19804 8.573 7.77376C9.05192 7.34949 9.66772 7.11205 10.3075 7.10498H31.71C32.3519 7.10462 32.9717 7.33947 33.4521 7.76512C33.9326 8.19077 34.2405 8.77772 34.3175 9.41498L34.825 13.545C34.8158 14.6497 34.3698 15.7059 33.5846 16.4829C32.7993 17.26 31.7385 17.6948 30.6337 17.6925H30.6425Z" fill="#5B4905"/>
</svg>
