<svg width="26" height="32" viewBox="0 0 26 32" fill="none" xmlns="http://www.w3.org/2000/svg">
<path d="M13.1978 20.3051C7.49781 20.3051 1.13281 24.9411 1.13281 30.638M13.1978 15.145C14.5635 15.1483 15.8994 14.7464 17.0367 13.9902C18.1739 13.2341 19.0613 12.1576 19.5866 10.897C19.9797 9.95459 20.1586 8.93667 20.1104 7.91674C20.0622 6.8968 19.788 5.9003 19.3078 4.99921C18.8275 4.09812 18.1532 3.31493 17.3334 2.70621C16.5136 2.09748 15.5689 1.67842 14.5674 1.47929C13.5661 1.27963 12.533 1.30445 11.5425 1.55197C10.552 1.79949 9.62862 2.26354 8.83895 2.91072C8.04928 3.5579 7.41292 4.37211 6.97568 5.29474C6.53844 6.21737 6.3112 7.22547 6.31031 8.24646C6.30989 10.0743 7.03505 11.8275 8.32648 13.121C9.61791 14.4145 11.37 15.1425 13.1978 15.145Z" stroke="#FFCA00" stroke-width="1.5" stroke-linecap="round" stroke-linejoin="round"/>
<path d="M20.1061 20.7231V30.2184M15.3672 25.4811H24.8672" stroke="#FFCA00" stroke-width="1.5" stroke-miterlimit="10" stroke-linecap="round"/>
</svg>
