<svg width="17" height="17" viewBox="0 0 17 17" fill="none" xmlns="http://www.w3.org/2000/svg">
<path d="M8.49983 11.3334H8.5055M8.49983 7.08339V9.20839M7.49046 3.69543L2.49104 12.0417C2.38804 12.2203 2.33355 12.4226 2.33301 12.6287C2.33247 12.8348 2.38589 13.0375 2.48795 13.2166C2.59002 13.3956 2.73718 13.5449 2.9148 13.6494C3.09242 13.754 3.29432 13.8102 3.50042 13.8126H13.4993C13.7054 13.8104 13.9075 13.7543 14.0852 13.6498C14.263 13.5453 14.4102 13.3961 14.5123 13.2169C14.6144 13.0378 14.6678 12.835 14.6672 12.6288C14.6665 12.4226 14.6119 12.2202 14.5086 12.0417L9.50992 3.69543C9.40478 3.52184 9.25664 3.3783 9.07983 3.27867C8.90301 3.17905 8.70349 3.12671 8.50054 3.12671C8.29759 3.12671 8.09807 3.17905 7.92126 3.27867C7.74444 3.3783 7.59631 3.52184 7.49117 3.69543" stroke="#5B4905" stroke-width="1.5" stroke-miterlimit="10" stroke-linecap="round" stroke-linejoin="round"/>
</svg>
