<svg width="57" height="57" viewBox="0 0 57 57" fill="none" xmlns="http://www.w3.org/2000/svg">
<path d="M24.9375 33.25C25.7118 31.6991 26.7876 30.875 28.5 30.875C30.2338 30.875 32.0625 31.958 32.0625 33.8438C32.0625 35.4825 30.7325 36.8125 29.0938 36.8125C30.7325 36.8125 32.0625 38.1425 32.0625 39.7812C32.0625 41.667 30.2338 42.75 28.5 42.75C26.7876 42.75 25.7118 41.9259 24.9375 40.375" stroke="#5B4905" stroke-width="1.5" stroke-linecap="round" stroke-linejoin="round"/>
<path d="M28.5 52.25C37.0259 52.25 43.9375 45.3384 43.9375 36.8125C43.9375 28.2866 37.0259 21.375 28.5 21.375C19.9741 21.375 13.0625 28.2866 13.0625 36.8125C13.0625 45.3384 19.9741 52.25 28.5 52.25Z" stroke="#5B4905" stroke-width="1.5"/>
<path d="M21.375 22.5625L13.0625 4.75M35.625 22.5625L43.9375 4.75M35.625 4.75L33.25 10.6875M29.6875 21.375L22.5625 4.75" stroke="#5B4905" stroke-width="1.5" stroke-linecap="round" stroke-linejoin="round"/>
</svg>
