<svg width="38" height="38" viewBox="0 0 38 38" fill="none" xmlns="http://www.w3.org/2000/svg">
<path d="M12.666 15.8333V11.0833C12.666 9.40363 13.3333 7.79272 14.521 6.60499C15.7087 5.41726 17.3196 4.75 18.9993 4.75C20.6791 4.75 22.29 5.41726 23.4777 6.60499C24.6654 7.79272 25.3327 9.40363 25.3327 11.0833V15.8333" stroke="#FFCA00" stroke-linecap="round"/>
<path d="M7.91602 15.8335H30.0827V30.0835C30.0827 30.9233 29.7491 31.7288 29.1552 32.3227C28.5613 32.9165 27.7559 33.2502 26.916 33.2502H11.0827C10.2428 33.2502 9.43738 32.9165 8.84351 32.3227C8.24965 31.7288 7.91602 30.9233 7.91602 30.0835V15.8335Z" stroke="#FFCA00" stroke-linejoin="round"/>
<path d="M22.957 24.5415H22.9729V24.5573H22.957V24.5415Z" stroke="#FFCA00" stroke-width="1.5" stroke-linejoin="round"/>
</svg>
