<svg width="42" height="42" viewBox="0 0 42 42" fill="none" xmlns="http://www.w3.org/2000/svg">
<path d="M17.5 27.125H12.25C11.5538 27.125 10.8861 27.4016 10.3938 27.8938C9.90156 28.3861 9.625 29.0538 9.625 29.75C9.625 30.4462 9.90156 31.1139 10.3938 31.6062C10.8861 32.0984 11.5538 32.375 12.25 32.375H17.5C18.1962 32.375 18.8639 32.0984 19.3562 31.6062C19.8484 31.1139 20.125 30.4462 20.125 29.75C20.125 29.0538 19.8484 28.3861 19.3562 27.8938C18.8639 27.4016 18.1962 27.125 17.5 27.125ZM11.375 29.75C11.375 29.5179 11.4672 29.2954 11.6313 29.1313C11.7954 28.9672 12.0179 28.875 12.25 28.875H17.5C17.7321 28.875 17.9546 28.9672 18.1187 29.1313C18.2828 29.2954 18.375 29.5179 18.375 29.75C18.375 29.9821 18.2828 30.2046 18.1187 30.3687C17.9546 30.5328 17.7321 30.625 17.5 30.625H12.25C12.0179 30.625 11.7954 30.5328 11.6313 30.3687C11.4672 30.2046 11.375 29.9821 11.375 29.75Z" fill="#FFCA00"/>
<path d="M14.9293 6.125C14.0193 6.125 13.3893 6.125 12.7978 6.293C12.2766 6.44193 11.7876 6.68641 11.3557 7.014C10.8657 7.38675 10.4878 7.889 9.94175 8.61875L7.37275 12.0452C7.00175 12.5387 6.74625 12.88 6.56075 13.2615C6.39703 13.6 6.27763 13.9582 6.2055 14.3273C6.125 14.7438 6.125 15.1707 6.125 15.7867V29.4367C6.125 30.3852 6.125 31.1517 6.17575 31.7695C6.22825 32.4082 6.3385 32.9683 6.60275 33.4845C7.02181 34.3079 7.69077 34.9774 8.51375 35.3972C9.03175 35.6615 9.59175 35.7718 10.2287 35.8243C10.85 35.875 11.6147 35.875 12.5632 35.875H29.4367C30.3852 35.875 31.1517 35.875 31.7695 35.8243C32.4082 35.7718 32.9683 35.6615 33.4862 35.3972C34.309 34.9779 34.9779 34.309 35.3972 33.4862C35.6615 32.9683 35.7718 32.4083 35.8243 31.7713C35.875 31.15 35.875 30.3852 35.875 29.4367V15.7867C35.875 15.1707 35.875 14.7438 35.7945 14.3273C35.7224 13.9582 35.603 13.6 35.4392 13.2615C35.2537 12.88 34.9983 12.5387 34.629 12.0452L32.0565 8.61875C31.5123 7.89075 31.1342 7.38675 30.6442 7.014C30.2124 6.68641 29.7234 6.44193 29.2023 6.293C28.6108 6.125 27.9807 6.125 27.0707 6.125H14.9293ZM13.279 7.9765C13.6045 7.882 13.972 7.875 15.05 7.875H18.2595L17.6033 13.125H8.75L11.27 9.765C11.9175 8.90225 12.145 8.6135 12.4127 8.40875C12.6722 8.21221 12.9659 8.06563 13.279 7.9765ZM24.3967 13.125L23.7405 7.875H26.95C28.028 7.875 28.3955 7.882 28.721 7.9765C29.0343 8.064 29.3282 8.21275 29.5872 8.40875C29.8567 8.6135 30.0842 8.90225 30.73 9.765L33.25 13.125H24.3967ZM21.9783 7.875L22.6345 13.125H19.3655L20.0217 7.875H21.9783ZM22.75 14.875V21.875C22.75 22.1071 22.6578 22.3296 22.4937 22.4937C22.3296 22.6578 22.1071 22.75 21.875 22.75H20.125C19.8929 22.75 19.6704 22.6578 19.5063 22.4937C19.3422 22.3296 19.25 22.1071 19.25 21.875V14.875H22.75ZM17.5 21.875C17.5 22.5712 17.7766 23.2389 18.2688 23.7312C18.7611 24.2234 19.4288 24.5 20.125 24.5H21.875C22.5712 24.5 23.2389 24.2234 23.7312 23.7312C24.2234 23.2389 24.5 22.5712 24.5 21.875V14.875H34.1058C34.1233 15.0728 34.125 15.3475 34.125 15.8673V29.4C34.125 30.394 34.125 31.087 34.0795 31.6278C34.0375 32.1562 33.957 32.4607 33.8398 32.6917C33.588 33.1861 33.1861 33.588 32.6917 33.8398C32.4607 33.957 32.1562 34.0375 31.6278 34.0795C31.0888 34.125 30.394 34.125 29.4 34.125H12.6C11.606 34.125 10.913 34.125 10.3723 34.0795C9.84375 34.0375 9.53925 33.957 9.30825 33.8398C8.81454 33.5877 8.41329 33.1858 8.162 32.6917C8.043 32.4607 7.9625 32.1562 7.9205 31.6278C7.875 31.087 7.875 30.394 7.875 29.4V15.8673C7.875 15.3475 7.87675 15.0728 7.89425 14.875H17.5V21.875Z" fill="#FFCA00"/>
</svg>
