<svg width="152" height="152" viewBox="0 0 152 152" fill="none" xmlns="http://www.w3.org/2000/svg">
<path fill-rule="evenodd" clip-rule="evenodd" d="M76 133C83.4854 133 90.8974 131.526 97.813 128.661C104.729 125.797 111.012 121.598 116.305 116.305C121.598 111.012 125.797 104.729 128.661 97.813C131.526 90.8974 133 83.4854 133 76C133 68.5147 131.526 61.1026 128.661 54.187C125.797 47.2715 121.598 40.9879 116.305 35.6949C111.012 30.402 104.729 26.2034 97.813 23.3389C90.8974 20.4743 83.4854 19 76 19C60.8827 19 46.3845 25.0053 35.6949 35.6949C25.0053 46.3845 19 60.8827 19 76C19 91.1173 25.0053 105.616 35.6949 116.305C46.3845 126.995 60.8827 133 76 133ZM74.5307 99.0533L106.197 61.0533L96.4693 52.9467L69.236 85.6203L55.1443 71.5223L46.189 80.4777L65.189 99.4777L70.091 104.38L74.5307 99.0533Z" fill="white"/>
</svg>
