<svg width="42" height="42" viewBox="0 0 42 42" fill="none" xmlns="http://www.w3.org/2000/svg">
<path d="M36.0501 9.20498C35.9182 8.14539 35.4049 7.17011 34.6061 6.46152C33.8074 5.75294 32.7778 5.35957 31.7101 5.35498H10.2988C9.23374 5.35902 8.20639 5.74993 7.40801 6.45495C6.60963 7.15997 6.09462 8.13106 5.95884 9.18748L5.43384 13.51C5.43329 14.3583 5.61414 15.1969 5.96426 15.9696C6.31438 16.7422 6.82567 17.4311 7.46384 17.99V32.27C7.46384 33.4303 7.92478 34.5431 8.74525 35.3636C9.56572 36.184 10.6785 36.645 11.8388 36.645H30.1613C31.3217 36.645 32.4345 36.184 33.2549 35.3636C34.0754 34.5431 34.5363 33.4303 34.5363 32.27V17.99C35.1761 17.4319 35.689 16.7434 36.0407 15.9707C36.3923 15.198 36.5745 14.3589 36.5751 13.51L36.0501 9.20498ZM24.5176 34.895H17.5176V27.755C17.5176 27.0588 17.7942 26.3911 18.2864 25.8988C18.7787 25.4065 19.4464 25.13 20.1426 25.13H21.8926C22.5888 25.13 23.2565 25.4065 23.7487 25.8988C24.241 26.3911 24.5176 27.0588 24.5176 27.755V34.895ZM32.7951 32.27C32.7951 32.9662 32.5185 33.6339 32.0262 34.1261C31.534 34.6184 30.8663 34.895 30.1701 34.895H26.2676V27.755C26.2676 26.5947 25.8067 25.4819 24.9862 24.6614C24.1657 23.8409 23.0529 23.38 21.8926 23.38H20.1426C18.9823 23.38 17.8695 23.8409 17.049 24.6614C16.2285 25.4819 15.7676 26.5947 15.7676 27.755V34.895H11.8388C11.1426 34.895 10.475 34.6184 9.98268 34.1261C9.4904 33.6339 9.21384 32.9662 9.21384 32.27V19.0225C9.90209 19.3053 10.6398 19.448 11.3838 19.4425C12.2428 19.4462 13.0922 19.2617 13.8723 18.9019C14.6523 18.5422 15.3441 18.0158 15.8988 17.36C15.9379 17.3208 15.9842 17.2898 16.0353 17.2686C16.0863 17.2474 16.1411 17.2365 16.1963 17.2365C16.2516 17.2365 16.3064 17.2474 16.3574 17.2686C16.4085 17.2898 16.4548 17.3208 16.4938 17.36C17.0486 18.0158 17.7403 18.5422 18.5204 18.9019C19.3004 19.2617 20.1498 19.4462 21.0088 19.4425C21.8715 19.4453 22.7245 19.2605 23.5086 18.901C24.2928 18.5414 24.9894 18.0156 25.5501 17.36C25.5859 17.3215 25.6293 17.2908 25.6774 17.2698C25.7256 17.2487 25.7775 17.2377 25.8301 17.2375C25.8853 17.2373 25.94 17.2481 25.991 17.2691C26.0421 17.2901 26.0885 17.321 26.1276 17.36C26.6824 18.0158 27.3741 18.5422 28.1541 18.9019C28.9342 19.2617 29.7836 19.4462 30.6426 19.4425C31.3808 19.4457 32.1123 19.303 32.7951 19.0225V32.27ZM30.6426 17.6925C30.0383 17.6948 29.4406 17.5662 28.8908 17.3155C28.341 17.0647 27.852 16.6978 27.4576 16.24C27.2606 16.0045 27.0143 15.815 26.7361 15.685C26.4579 15.555 26.1546 15.4876 25.8476 15.4875H25.8301C25.5244 15.4854 25.222 15.5501 24.9439 15.6771C24.6658 15.804 24.4188 15.9902 24.2201 16.2225C23.8142 16.6652 23.3207 17.0187 22.7708 17.2605C22.221 17.5023 21.627 17.6272 21.0263 17.6272C20.4257 17.6272 19.8316 17.5023 19.2818 17.2605C18.732 17.0187 18.2385 16.6652 17.8326 16.2225C17.629 15.9916 17.3785 15.8067 17.0979 15.68C16.8173 15.5533 16.513 15.4878 16.2051 15.4878C15.8972 15.4878 15.5929 15.5533 15.3123 15.68C15.0317 15.8067 14.7812 15.9916 14.5776 16.2225C14.0253 16.867 13.291 17.3294 12.4711 17.5491C11.6512 17.7688 10.7841 17.7355 9.98349 17.4535C9.18291 17.1715 8.4863 16.654 7.9851 15.969C7.48391 15.2839 7.20155 14.4634 7.17509 13.615L7.70009 9.41498C7.78424 8.78072 8.09418 8.19804 8.5731 7.77376C9.05201 7.34949 9.66781 7.11205 10.3076 7.10498H31.7101C32.352 7.10462 32.9718 7.33947 33.4522 7.76512C33.9327 8.19077 34.2406 8.77772 34.3176 9.41498L34.8251 13.545C34.8158 14.6497 34.3699 15.7059 33.5847 16.4829C32.7994 17.26 31.7386 17.6948 30.6338 17.6925H30.6426Z" fill="#5B4905"/>
</svg>
