<svg width="39" height="39" viewBox="0 0 39 39" fill="none" xmlns="http://www.w3.org/2000/svg">
<path d="M22.065 22.9592C16.365 22.9592 10 27.5952 10 33.292M22.065 17.7991C23.4307 17.8024 24.7666 17.4005 25.9039 16.6443C27.0411 15.8881 27.9285 14.8116 28.4538 13.551C28.8469 12.6086 29.0258 11.5907 28.9775 10.5708C28.9293 9.55085 28.6552 8.55435 28.175 7.65326C27.6947 6.75217 27.0204 5.96898 26.2006 5.36026C25.3808 4.75154 24.4361 4.33248 23.4346 4.13334C22.4333 3.93368 21.4002 3.95851 20.4097 4.20602C19.4191 4.45354 18.4958 4.91759 17.7061 5.56477C16.9165 6.21195 16.2801 7.02616 15.8429 7.94879C15.4056 8.87142 15.1784 9.87952 15.1775 10.9005C15.1771 12.7283 15.9022 14.4816 17.1937 15.7751C18.4851 17.0686 20.2372 17.7966 22.065 17.7991Z" stroke="#FFCA00" stroke-width="1.5" stroke-linecap="round" stroke-linejoin="round"/>
<path d="M28.5111 33.377C28.314 33.5744 28.0799 33.7311 27.8222 33.838C27.5645 33.9449 27.2882 33.9999 27.0092 34H24V31.0102C24 30.4471 24.224 29.9065 24.6222 29.5083M28.5111 33.377L24.6222 29.5083M28.5111 33.377L36.2687 25.6163M24.6222 29.5083L32.3876 21.7344L33.4967 20.6237C33.6941 20.4261 33.9284 20.2692 34.1865 20.1622C34.4445 20.0552 34.721 20.0001 35.0004 20C35.2797 19.9999 35.5563 20.0549 35.8144 20.1618C36.0724 20.2687 36.3069 20.4254 36.5044 20.623L37.3801 21.4995C37.7788 21.8982 38.0027 22.4388 38.0027 23.0026C38.0027 23.5663 37.7788 24.107 37.3801 24.5056L36.2687 25.6163M36.2687 25.6163L32.3868 21.7344" stroke="#FFCA00" stroke-width="1.5" stroke-linecap="round" stroke-linejoin="round"/>
</svg>
