<svg width="39" height="39" viewBox="0 0 39 39" fill="none" xmlns="http://www.w3.org/2000/svg">
<path d="M8.125 19.5V6.5M30.875 32.5V27.625M8.125 32.5V26M30.875 21.125V6.5M19.5 11.375V6.5M19.5 32.5V17.875" stroke="black" stroke-linecap="round"/>
<path d="M8.125 26C9.91993 26 11.375 24.5449 11.375 22.75C11.375 20.9551 9.91993 19.5 8.125 19.5C6.33007 19.5 4.875 20.9551 4.875 22.75C4.875 24.5449 6.33007 26 8.125 26Z" stroke="black" stroke-linecap="round"/>
<path d="M19.5 17.875C21.2949 17.875 22.75 16.4199 22.75 14.625C22.75 12.8301 21.2949 11.375 19.5 11.375C17.7051 11.375 16.25 12.8301 16.25 14.625C16.25 16.4199 17.7051 17.875 19.5 17.875Z" stroke="black" stroke-linecap="round"/>
<path d="M30.875 27.625C32.6699 27.625 34.125 26.1699 34.125 24.375C34.125 22.5801 32.6699 21.125 30.875 21.125C29.0801 21.125 27.625 22.5801 27.625 24.375C27.625 26.1699 29.0801 27.625 30.875 27.625Z" stroke="black" stroke-linecap="round"/>
</svg>
