<svg width="106" height="100" viewBox="0 0 106 100" fill="none" xmlns="http://www.w3.org/2000/svg">
<path d="M0.52832 99.1432L22.0445 38.9859L60.6856 77.627L0.52832 99.1432ZM9.92424 89.7458L50.168 75.475L24.1951 49.5021L9.92424 89.7458ZM56.5799 56.3963L53.0008 52.8172L83.6502 22.1677C86.3284 19.4896 89.5888 18.1505 93.4314 18.1505C97.2732 18.1505 100.533 19.4896 103.211 22.1677L105.319 24.2755L101.961 27.8547L99.8533 25.7469C98.0818 23.9754 95.9778 23.0896 93.5413 23.0896C91.1039 23.0896 88.9994 23.9754 87.2279 25.7469L56.5799 56.3963ZM37.6981 37.5146L34.119 33.9355L37.544 30.5105C39.6076 28.4469 40.6394 25.9514 40.6394 23.024C40.6394 20.0966 39.6076 17.6011 37.544 15.5375L34.0534 12.0469L37.6325 8.46773L41.1231 11.9584C44.1676 15.0028 45.6898 18.6914 45.6898 23.024C45.6898 27.3566 44.1676 31.0451 41.1231 34.0896L37.6981 37.5146ZM47.1383 46.9547L43.5592 43.377L62.792 24.1442C64.5635 22.3728 65.4492 20.2688 65.4492 17.8323C65.4492 15.3948 64.5635 13.2908 62.792 11.5203L54.9758 3.70413L58.555 0.125L66.3711 7.94114C69.1225 10.6926 70.4982 13.9896 70.4982 17.8323C70.4982 21.674 69.1225 24.9705 66.3711 27.7219L47.1383 46.9547ZM66.02 65.8365L62.4409 62.2574L66.9648 57.7349C70.0815 54.6172 73.8538 53.0584 78.2815 53.0584C82.7093 53.0584 86.482 54.6172 89.5997 57.7349L94.1222 62.2574L90.5445 65.8365L86.0206 61.3141C83.8838 59.1772 81.3041 58.1088 78.2815 58.1088C75.259 58.1088 72.6793 59.1772 70.5425 61.3141L66.02 65.8365Z" fill="#FFCA00"/>
</svg>
