<svg width="147" height="39" viewBox="0 0 147 39" fill="none" xmlns="http://www.w3.org/2000/svg">
<path d="M31.2749 7.84259C27.4022 7.84259 21.9311 8.16662 19.1352 10.961C17.9247 12.1716 17.3202 14.1449 17.4771 16.3785C17.4975 16.6735 17.6937 16.9248 17.9756 17.0179C18.256 17.1094 18.5641 17.0237 18.7559 16.7985C20.3108 14.9689 22.2435 13.5027 24.5046 12.4404C24.6964 12.3489 24.9231 12.3416 25.1295 12.4143C25.3111 12.4796 25.4535 12.6031 25.5276 12.7616C25.6816 13.0871 25.6322 13.5158 25.1207 13.757C25.0917 13.7715 25.0655 13.7904 25.0365 13.8035C25.0263 13.8079 25.0147 13.8064 25.006 13.8108C19.4346 16.4294 16.6954 20.9981 15.4514 25.6962C14.5446 19.8138 12.6294 16.3509 10.8202 14.2249C9.51095 12.5277 8.22341 11.6281 7.47943 11.1196C7.34136 11.0251 6.92435 10.7403 6.7514 10.5673C6.46803 10.284 6.46803 9.82329 6.7514 9.53993C7.03477 9.25799 7.49687 9.25799 7.81218 9.57187C7.88923 9.64019 8.01272 9.72738 8.16966 9.83201L8.29902 9.9192C9.35108 10.6399 11.31 11.9783 13.0479 14.8599C13.2034 15.1171 13.5042 15.2552 13.7963 15.2C14.0928 15.1476 14.3252 14.9195 14.3834 14.6245C14.7627 12.6875 14.5927 9.81308 12.8649 8.08529C10.069 5.29229 4.59789 4.96826 0.726671 4.96826C0.32553 4.96819 0 5.29372 0 5.6948C0 9.56745 0.324032 15.0386 3.11846 17.8345C4.28387 18.9999 6.08147 19.5231 7.86736 19.5231C9.32486 19.5231 10.7533 19.1583 11.8476 18.5262C13.3399 21.6185 14.5316 26.2381 14.5316 33.3048C14.5316 33.7059 14.8571 34.0314 15.2582 34.0314C15.6592 34.0314 15.9848 33.7059 15.9848 33.3048C15.9848 29.3624 16.6605 24.6309 19.173 20.7364C20.18 21.7202 21.9137 22.3437 23.8347 22.4018C23.9306 22.4047 24.0251 22.4061 24.1195 22.4061C26.0711 22.4061 27.796 21.7944 28.8815 20.7073C31.6773 17.9115 31.9999 12.4403 31.9999 8.56763C32.0015 8.16662 31.6774 7.84259 31.2749 7.84259Z" fill="#FFCA00"/>
<path d="M51.75 30.9062C50.125 30.9062 48.6562 30.5625 47.3438 29.875C46.0521 29.1875 45.0208 28.1979 44.25 26.9062C43.5 25.5938 43.125 24.0312 43.125 22.2188V9.5H45.9375V22.125C45.9375 23.5417 46.1979 24.6875 46.7188 25.5625C47.2604 26.4167 47.9688 27.0417 48.8438 27.4375C49.7396 27.8333 50.7083 28.0312 51.75 28.0312C52.7917 28.0312 53.75 27.8333 54.625 27.4375C55.5208 27.0417 56.2292 26.4167 56.75 25.5625C57.2917 24.6875 57.5625 23.5417 57.5625 22.125V9.5H60.375V22.2188C60.375 24.0312 59.9896 25.5938 59.2188 26.9062C58.4688 28.1979 57.4479 29.1875 56.1562 29.875C54.8646 30.5625 53.3958 30.9062 51.75 30.9062ZM76.0713 30.5L76.04 21.2188C76.04 19.8646 75.7379 18.8333 75.1338 18.125C74.5504 17.4167 73.6442 17.0625 72.415 17.0625C71.5817 17.0625 70.7483 17.375 69.915 18C69.1025 18.6042 68.3838 19.3125 67.7588 20.125V17.3438C68.0921 16.9271 68.5192 16.5104 69.04 16.0938C69.5608 15.6562 70.1442 15.2917 70.79 15C71.4567 14.7083 72.1442 14.5625 72.8525 14.5625C73.915 14.5625 74.8838 14.8021 75.7588 15.2812C76.6338 15.7396 77.3317 16.4479 77.8525 17.4062C78.3733 18.3438 78.6338 19.5312 78.6338 20.9688V30.5H76.0713ZM65.1963 30.5V14.875H67.7588V30.5H65.1963ZM85.0175 11.625C84.4133 11.625 83.9029 11.4062 83.4863 10.9688C83.0904 10.5312 82.8925 10.0417 82.8925 9.5C82.8925 8.9375 83.0904 8.44792 83.4863 8.03125C83.9029 7.59375 84.4133 7.375 85.0175 7.375C85.4133 7.375 85.7675 7.47917 86.08 7.6875C86.4133 7.875 86.6738 8.13542 86.8613 8.46875C87.0488 8.78125 87.1425 9.125 87.1425 9.5C87.1425 9.85417 87.0488 10.1979 86.8613 10.5312C86.6738 10.8646 86.4133 11.1354 86.08 11.3438C85.7675 11.5312 85.4133 11.625 85.0175 11.625ZM84.0488 30.5V14.875H86.6113V30.5H84.0488ZM81.58 17.2812V14.875H86.6113V17.2812H81.58ZM99.5887 30.8125C98.7346 30.8125 97.8387 30.7708 96.9012 30.6875C95.9846 30.625 95.0992 30.5417 94.245 30.4375C93.3908 30.3125 92.6304 30.1771 91.9637 30.0312V9.84375C93.0471 9.59375 94.2242 9.40625 95.495 9.28125C96.7867 9.13542 98.0679 9.0625 99.3387 9.0625C100.88 9.0625 102.214 9.32292 103.339 9.84375C104.485 10.3438 105.37 11.0312 105.995 11.9062C106.62 12.7812 106.932 13.7917 106.932 14.9375C106.932 15.9583 106.641 16.8958 106.057 17.75C105.474 18.5833 104.745 19.2083 103.87 19.625C104.495 19.75 105.11 20.0104 105.714 20.4062C106.318 20.8021 106.818 21.3438 107.214 22.0312C107.63 22.7188 107.839 23.5729 107.839 24.5938C107.839 25.7604 107.505 26.8125 106.839 27.75C106.172 28.6875 105.214 29.4375 103.964 30C102.735 30.5417 101.276 30.8125 99.5887 30.8125ZM99.5262 28.1562C101.089 28.1562 102.38 27.8333 103.401 27.1875C104.443 26.5417 104.964 25.6771 104.964 24.5938C104.964 23.4479 104.453 22.5938 103.432 22.0312C102.432 21.4479 101.203 21.1562 99.745 21.1562H94.2762V18.6562H99.6825C101.099 18.6562 102.182 18.3021 102.932 17.5938C103.682 16.8646 104.057 16.0208 104.057 15.0625C104.057 14.3125 103.828 13.6979 103.37 13.2188C102.912 12.7188 102.307 12.3438 101.557 12.0938C100.828 11.8438 100.026 11.7188 99.1512 11.7188C98.2762 11.7188 97.4846 11.75 96.7762 11.8125C96.0887 11.875 95.4221 11.9688 94.7762 12.0938V27.7812C95.2762 27.8646 95.8179 27.9375 96.4012 28C97.0054 28.0625 97.5783 28.1042 98.12 28.125C98.6825 28.1458 99.1512 28.1562 99.5262 28.1562ZM117.129 30.9688C115.795 30.9688 114.577 30.6354 113.473 29.9688C112.368 29.2812 111.483 28.3333 110.816 27.125C110.17 25.9167 109.848 24.5208 109.848 22.9375C109.848 21.2083 110.17 19.7188 110.816 18.4688C111.483 17.2188 112.389 16.2604 113.535 15.5938C114.681 14.9062 115.962 14.5625 117.379 14.5625C118.275 14.5625 119.181 14.7812 120.098 15.2188C121.035 15.6354 121.837 16.2188 122.504 16.9688V14.875H125.066V30.5H122.504V27.8438C121.962 28.6771 121.223 29.4062 120.285 30.0312C119.368 30.6562 118.316 30.9688 117.129 30.9688ZM117.535 28.4688C118.493 28.4688 119.348 28.2188 120.098 27.7188C120.848 27.2188 121.441 26.5312 121.879 25.6562C122.316 24.7604 122.525 23.7604 122.504 22.6562L122.473 19.6562C121.827 18.8438 121.129 18.2083 120.379 17.75C119.65 17.2917 118.806 17.0625 117.848 17.0625C116.723 17.0625 115.764 17.3438 114.973 17.9062C114.181 18.4688 113.566 19.1979 113.129 20.0938C112.712 20.9688 112.504 21.9167 112.504 22.9375C112.504 23.9375 112.712 24.8646 113.129 25.7188C113.545 26.5521 114.129 27.2188 114.879 27.7188C115.65 28.2188 116.535 28.4688 117.535 28.4688ZM135.325 38.4688C134.367 38.4688 133.544 38.3542 132.856 38.125C132.19 37.9167 131.617 37.6458 131.137 37.3125C130.658 37 130.221 36.6979 129.825 36.4062V33.6562C130.137 33.8854 130.544 34.1771 131.044 34.5312C131.565 34.9062 132.179 35.2396 132.887 35.5312C133.617 35.8229 134.429 35.9688 135.325 35.9688C136.346 35.9688 137.283 35.7812 138.137 35.4062C138.992 35.0312 139.679 34.4792 140.2 33.75C140.721 33.0208 140.981 32.1458 140.981 31.125V27.8438C140.44 28.6771 139.7 29.4062 138.762 30.0312C137.846 30.6562 136.794 30.9688 135.606 30.9688C134.273 30.9688 133.054 30.6354 131.95 29.9688C130.846 29.2812 129.96 28.3333 129.294 27.125C128.648 25.9167 128.325 24.5208 128.325 22.9375C128.325 21.2083 128.648 19.7188 129.294 18.4688C129.96 17.2188 130.867 16.2604 132.012 15.5938C133.158 14.9062 134.44 14.5625 135.856 14.5625C136.752 14.5625 137.658 14.7812 138.575 15.2188C139.512 15.6354 140.315 16.2188 140.981 16.9688V14.875H143.544V30.1875C143.544 32.0417 143.169 33.5833 142.419 34.8125C141.669 36.0417 140.669 36.9583 139.419 37.5625C138.169 38.1667 136.804 38.4688 135.325 38.4688ZM136.012 28.4375C136.971 28.4375 137.815 28.1875 138.544 27.6875C139.294 27.1875 139.877 26.5 140.294 25.625C140.731 24.75 140.95 23.7604 140.95 22.6562V19.6562C140.304 18.8438 139.606 18.2188 138.856 17.7812C138.127 17.3229 137.283 17.0938 136.325 17.0938C135.2 17.0938 134.242 17.375 133.45 17.9375C132.658 18.4792 132.044 19.1979 131.606 20.0938C131.19 20.9688 130.981 21.9167 130.981 22.9375C130.981 23.9375 131.19 24.8542 131.606 25.6875C132.023 26.5208 132.606 27.1875 133.356 27.6875C134.127 28.1875 135.012 28.4375 136.012 28.4375Z" fill="#5B4905"/>
</svg>
