<svg width="568" height="190" viewBox="0 0 568 190" fill="none" xmlns="http://www.w3.org/2000/svg">
<path d="M160.284 22.2568C140.437 22.2568 112.397 23.9175 98.0678 38.2389C91.864 44.4428 88.7661 54.5562 89.5704 66.0031C89.6748 67.5151 90.6802 68.8032 92.1247 69.2801C93.562 69.7493 95.141 69.3098 96.124 68.1557C104.093 58.7792 113.998 51.2648 125.586 45.8206C126.569 45.3515 127.731 45.3141 128.788 45.6866C129.72 46.0217 130.449 46.6546 130.829 47.4666C131.618 49.135 131.365 51.3319 128.744 52.568C128.595 52.6424 128.461 52.7394 128.312 52.8065C128.26 52.8288 128.2 52.8215 128.156 52.8438C99.6021 66.2642 85.5638 89.679 79.1885 113.756C74.5413 83.6092 64.7257 65.8617 55.4537 54.9663C48.7436 46.2678 42.145 41.6576 38.3321 39.0513C37.6245 38.5671 35.4873 37.1075 34.6009 36.2211C33.1487 34.7689 33.1487 32.4079 34.6009 30.9557C36.0532 29.5107 38.4215 29.5107 40.0374 31.1194C40.4323 31.4695 41.0652 31.9164 41.8695 32.4526L42.5325 32.8994C47.9243 36.5933 57.9637 43.4524 66.8706 58.2206C67.6676 59.5388 69.2092 60.2465 70.7061 59.9633C72.2254 59.6952 73.4169 58.5261 73.715 57.0142C75.6588 47.0868 74.7874 32.3555 65.9326 23.5007C51.6038 9.18654 23.5642 7.52588 3.72419 7.52588C1.66834 7.52553 0 9.19387 0 11.2494C0 31.0967 1.66066 59.1363 15.9821 73.4654C21.9548 79.4382 31.1675 82.1193 40.3202 82.1193C47.7899 82.1193 55.1108 80.2498 60.7188 77.0102C68.3672 92.8583 74.4743 116.534 74.4743 152.751C74.4743 154.806 76.1426 156.475 78.1981 156.475C80.2536 156.475 81.922 154.806 81.922 152.751C81.922 132.546 85.385 108.297 98.2615 88.3378C103.423 93.3798 112.308 96.5748 122.153 96.8725C122.644 96.8876 123.129 96.8949 123.612 96.8949C133.614 96.8949 142.454 93.7596 148.018 88.1887C162.346 73.8599 164 45.8203 164 25.9726C164.008 23.9175 162.347 22.2568 160.284 22.2568Z" fill="#FFCA00"/>
<path d="M184.875 159.625C178.292 159.625 172.333 158.25 167 155.5C161.75 152.75 157.542 148.792 154.375 143.625C151.292 138.375 149.75 132.125 149.75 124.875V74H163.375V124.25C163.375 129.333 164.333 133.5 166.25 136.75C168.167 139.917 170.75 142.292 174 143.875C177.25 145.375 180.875 146.125 184.875 146.125C188.875 146.125 192.5 145.375 195.75 143.875C199.083 142.292 201.667 139.917 203.5 136.75C205.417 133.5 206.375 129.333 206.375 124.25V74H220.125V124.875C220.125 132.125 218.542 138.375 215.375 143.625C212.292 148.792 208.083 152.75 202.75 155.5C197.5 158.25 191.542 159.625 184.875 159.625ZM281.035 158V121.125C281.035 116.125 279.91 112.375 277.66 109.875C275.41 107.375 272.077 106.125 267.66 106.125C264.577 106.125 261.535 107.25 258.535 109.5C255.618 111.667 253.035 114.208 250.785 117.125V104.75C252.118 103.083 253.785 101.417 255.785 99.75C257.785 98.0833 260.035 96.7083 262.535 95.625C265.118 94.4583 267.827 93.875 270.66 93.875C274.91 93.875 278.785 94.8333 282.285 96.75C285.785 98.5833 288.535 101.417 290.535 105.25C292.618 109.083 293.66 113.875 293.66 119.625V158H281.035ZM238.285 158V95.25H250.785V158H238.285ZM319.945 82.875C317.278 82.875 315.028 81.9167 313.195 80C311.362 78.0833 310.445 75.9167 310.445 73.5C310.445 71 311.362 68.8333 313.195 67C315.028 65.0833 317.278 64.125 319.945 64.125C321.695 64.125 323.278 64.5833 324.695 65.5C326.112 66.3333 327.237 67.4583 328.07 68.875C328.987 70.2917 329.445 71.8333 329.445 73.5C329.445 75.0833 328.987 76.625 328.07 78.125C327.237 79.5417 326.112 80.7083 324.695 81.625C323.278 82.4583 321.695 82.875 319.945 82.875ZM315.07 158V95.25H327.57V158H315.07ZM305.07 106.5V95.25H327.57V106.5H305.07ZM379.355 159.375C375.855 159.375 372.147 159.208 368.23 158.875C364.313 158.625 360.563 158.25 356.98 157.75C353.397 157.25 350.272 156.708 347.605 156.125V75.375C352.105 74.375 356.938 73.625 362.105 73.125C367.355 72.5417 372.647 72.25 377.98 72.25C384.313 72.25 389.813 73.2917 394.48 75.375C399.147 77.375 402.73 80.1667 405.23 83.75C407.813 87.25 409.105 91.2917 409.105 95.875C409.105 100.042 407.938 103.792 405.605 107.125C403.355 110.375 400.522 112.875 397.105 114.625C399.605 115.208 402.022 116.292 404.355 117.875C406.772 119.375 408.772 121.458 410.355 124.125C411.938 126.792 412.73 130.125 412.73 134.125C412.73 138.792 411.397 143.042 408.73 146.875C406.063 150.708 402.23 153.75 397.23 156C392.23 158.25 386.272 159.375 379.355 159.375ZM379.105 147C384.772 147 389.438 145.792 393.105 143.375C396.772 140.958 398.605 137.75 398.605 133.75C398.605 129.583 396.772 126.5 393.105 124.5C389.438 122.417 384.938 121.375 379.605 121.375H358.98V110.25H379.605C384.688 110.25 388.563 108.958 391.23 106.375C393.98 103.792 395.355 100.708 395.355 97.125C395.355 94.4583 394.522 92.2083 392.855 90.375C391.272 88.5417 389.147 87.1667 386.48 86.25C383.897 85.25 380.98 84.75 377.73 84.75C374.563 84.75 371.605 84.875 368.855 85.125C366.188 85.2917 363.647 85.625 361.23 86.125V145.5C363.063 145.833 365.105 146.125 367.355 146.375C369.605 146.625 371.772 146.792 373.855 146.875C376.022 146.958 377.772 147 379.105 147ZM449.015 159.875C443.848 159.875 439.057 158.542 434.64 155.875C430.307 153.208 426.807 149.458 424.14 144.625C421.557 139.708 420.265 133.958 420.265 127.375C420.265 120.458 421.557 114.5 424.14 109.5C426.807 104.5 430.39 100.667 434.89 98C439.473 95.25 444.557 93.875 450.14 93.875C453.64 93.875 457.182 94.7083 460.765 96.375C464.432 98.0417 467.515 100.292 470.015 103.125V95.25H482.515V158H470.015V147.375C468.015 150.708 465.182 153.625 461.515 156.125C457.932 158.625 453.765 159.875 449.015 159.875ZM451.64 147.5C455.057 147.5 458.14 146.625 460.89 144.875C463.723 143.042 465.973 140.542 467.64 137.375C469.307 134.125 470.098 130.417 470.015 126.25V115.375C467.515 112.542 464.848 110.292 462.015 108.625C459.265 106.958 456.098 106.125 452.515 106.125C448.515 106.125 445.057 107.125 442.14 109.125C439.307 111.125 437.098 113.75 435.515 117C434.015 120.25 433.265 123.708 433.265 127.375C433.265 131.042 434.015 134.417 435.515 137.5C437.098 140.583 439.265 143.042 442.015 144.875C444.765 146.625 447.973 147.5 451.64 147.5ZM523.55 189.875C519.8 189.875 516.55 189.458 513.8 188.625C511.05 187.792 508.633 186.708 506.55 185.375C504.467 184.125 502.55 182.875 500.8 181.625V169C502.3 170.083 504.092 171.292 506.175 172.625C508.258 174.042 510.717 175.292 513.55 176.375C516.383 177.458 519.592 178 523.175 178C527.092 178 530.675 177.25 533.925 175.75C537.175 174.333 539.758 172.208 541.675 169.375C543.592 166.625 544.55 163.375 544.55 159.625V147.375C542.55 150.708 539.717 153.625 536.05 156.125C532.467 158.625 528.3 159.875 523.55 159.875C518.383 159.875 513.592 158.542 509.175 155.875C504.842 153.208 501.342 149.458 498.675 144.625C496.092 139.708 494.8 133.958 494.8 127.375C494.8 120.458 496.092 114.5 498.675 109.5C501.342 104.5 504.925 100.667 509.425 98C514.008 95.25 519.092 93.875 524.675 93.875C528.175 93.875 531.717 94.7083 535.3 96.375C538.967 98.0417 542.05 100.292 544.55 103.125V95.25H557.05V156.625C557.05 163.875 555.508 169.958 552.425 174.875C549.425 179.875 545.342 183.625 540.175 186.125C535.092 188.625 529.55 189.875 523.55 189.875ZM526.175 147.375C529.592 147.375 532.675 146.5 535.425 144.75C538.175 142.917 540.383 140.417 542.05 137.25C543.717 134.083 544.55 130.417 544.55 126.25V115.375C542.05 112.542 539.383 110.292 536.55 108.625C533.8 106.958 530.633 106.125 527.05 106.125C523.05 106.125 519.592 107.125 516.675 109.125C513.842 111.125 511.633 113.75 510.05 117C508.55 120.25 507.8 123.708 507.8 127.375C507.8 131.042 508.55 134.417 510.05 137.5C511.633 140.5 513.8 142.917 516.55 144.75C519.3 146.5 522.508 147.375 526.175 147.375Z" fill="#5B4905"/>
</svg>
