<svg width="38" height="38" viewBox="0 0 38 38" fill="none" xmlns="http://www.w3.org/2000/svg">
<path d="M32.6164 8.32855C32.4971 7.36987 32.0327 6.48747 31.31 5.84637C30.5873 5.20527 29.6558 4.84937 28.6898 4.84521H9.31768C8.35402 4.84887 7.42451 5.20255 6.70217 5.84042C5.97983 6.4783 5.51387 7.35691 5.39102 8.31271L4.91602 12.2235C4.91552 12.9911 5.07915 13.7498 5.39592 14.4489C5.7127 15.148 6.17529 15.7712 6.75268 16.2769V29.1969C6.75268 30.2467 7.16972 31.2535 7.91205 31.9958C8.65438 32.7382 9.6612 33.1552 10.711 33.1552H27.2885C28.3383 33.1552 28.9291 32.0504 29.6714 31.3081C30.4138 30.5657 31.2469 30.2467 31.2469 29.1969V16.2769C31.8257 15.772 32.2898 15.149 32.6079 14.4499C32.9261 13.7508 33.0909 12.9917 33.0914 12.2235L32.6164 8.32855ZM22.1823 31.5719H15.8489V25.1119C15.8489 24.482 16.0992 23.8779 16.5446 23.4325C16.99 22.9871 17.594 22.7369 18.2239 22.7369H19.8073C20.4372 22.7369 21.0412 22.9871 21.4866 23.4325C21.932 23.8779 22.1823 24.482 22.1823 25.1119V31.5719ZM29.6714 28.7113C29.6714 29.3412 29.4454 29.5548 29 30.0002C28.5546 30.4456 27.9263 31.5719 27.2964 31.5719H23.7656V25.1119C23.7656 24.0621 23.3486 23.0552 22.6062 22.3129C21.8639 21.5706 20.8571 21.1535 19.8073 21.1535H18.2239C17.1741 21.1535 16.1673 21.5706 15.425 22.3129C14.6826 23.0552 14.2656 24.0621 14.2656 25.1119V31.5719H10.711C10.0811 31.5719 9.47704 31.3217 9.03164 30.8763C8.58624 30.4309 8.33602 29.8268 8.33602 29.1969V17.211C8.95872 17.4669 9.62616 17.5961 10.2994 17.591C11.0765 17.5944 11.8451 17.4275 12.5508 17.102C13.2566 16.7765 13.8824 16.3003 14.3843 15.7069C14.4197 15.6715 14.4616 15.6433 14.5078 15.6242C14.554 15.605 14.6035 15.5951 14.6535 15.5951C14.7035 15.5951 14.7531 15.605 14.7992 15.6242C14.8454 15.6433 14.8874 15.6715 14.9227 15.7069C15.4246 16.3003 16.0505 16.7765 16.7562 17.102C17.462 17.4275 18.2305 17.5944 19.0077 17.591C19.7882 17.5936 20.5599 17.4264 21.2694 17.1011C21.9789 16.7758 22.6091 16.3 23.1164 15.7069C23.1489 15.6721 23.1881 15.6443 23.2316 15.6252C23.2752 15.6062 23.3222 15.5963 23.3698 15.596C23.4197 15.5959 23.4692 15.6057 23.5154 15.6247C23.5616 15.6437 23.6036 15.6716 23.6389 15.7069C24.1409 16.3003 24.7667 16.7765 25.4725 17.102C26.1782 17.4275 26.9467 17.5944 27.7239 17.591C28.3918 17.594 29.0537 17.4648 29.6714 17.211V28.7113ZM27.7239 16.0077C27.1772 16.0098 26.6365 15.8935 26.139 15.6666C25.6415 15.4397 25.1991 15.1078 24.8423 14.6935C24.664 14.4805 24.4412 14.3091 24.1895 14.1914C23.9378 14.0738 23.6634 14.0128 23.3856 14.0127H23.3698C23.0932 14.0109 22.8196 14.0694 22.568 14.1843C22.3164 14.2991 22.0929 14.4675 21.9131 14.6777C21.5458 15.0783 21.0993 15.3981 20.6019 15.6169C20.1044 15.8357 19.5669 15.9486 19.0235 15.9486C18.4801 15.9486 17.9426 15.8357 17.4452 15.6169C16.9477 15.3981 16.5012 15.0783 16.1339 14.6777C15.9497 14.4688 15.7231 14.3015 15.4692 14.1869C15.2153 14.0723 14.94 14.013 14.6614 14.013C14.3829 14.013 14.1075 14.0723 13.8536 14.1869C13.5998 14.3015 13.3732 14.4688 13.1889 14.6777C12.6892 15.2608 12.0248 15.6792 11.2831 15.878C10.5413 16.0768 9.75671 16.0466 9.03237 15.7915C8.30803 15.5363 7.67777 15.0681 7.2243 14.4483C6.77084 13.8285 6.51537 13.0861 6.49143 12.3185L6.96643 8.51855C7.04257 7.94469 7.32299 7.4175 7.7563 7.03364C8.1896 6.64977 8.74675 6.43495 9.3256 6.42855H28.6898C29.2705 6.42822 29.8313 6.64071 30.266 7.02582C30.7007 7.41093 30.9792 7.94198 31.0489 8.51855L31.5081 12.2552C31.4997 13.2547 31.0963 14.2103 30.3858 14.9134C29.6753 15.6164 28.7155 16.0098 27.716 16.0077H27.7239Z" fill="#FFCA00"/>
</svg>
