<svg width="58" height="58" viewBox="0 0 58 58" fill="none" xmlns="http://www.w3.org/2000/svg">
<mask id="mask0_194_1614" style="mask-type:alpha" maskUnits="userSpaceOnUse" x="0" y="0" width="58" height="58">
<rect y="36.7012" width="42" height="42" transform="rotate(-60.907 0 36.7012)" fill="#D9D9D9"/>
</mask>
<g mask="url(#mask0_194_1614)">
<path d="M25.9867 19.9C25.1564 19.3479 24.4115 19.0058 23.752 18.8738C23.0924 18.7418 22.2407 18.7603 21.1968 18.9291C19.9489 19.1412 18.8706 19.1504 17.9618 18.9564C17.0529 18.7628 16.1268 18.3507 15.1835 17.7204L16.031 16.1973C16.9102 16.7994 17.6955 17.1529 18.3868 17.2578C19.0785 17.3627 20.0408 17.3359 21.2738 17.1775C22.3931 17.035 23.3811 17.0557 24.2377 17.2396C25.0943 17.4235 25.9561 17.8094 26.8229 18.3972L25.9867 19.9ZM28.8717 14.7153C28.0412 14.1634 27.2955 13.8229 26.6344 13.6937C25.9731 13.5647 25.1206 13.5847 24.0767 13.7535C22.829 13.9654 21.7515 13.973 20.8442 13.7763C19.937 13.5795 19.0117 13.1661 18.0682 12.536L18.9111 11.0213C19.7902 11.6237 20.5755 11.9772 21.2669 12.0818C21.9584 12.1869 22.9207 12.1602 24.1539 12.0015C25.2731 11.8593 26.261 11.8801 27.1176 12.064C27.9742 12.2479 28.836 12.6337 29.703 13.2212L28.8717 14.7153ZM37.6445 44.6302C36.8175 46.1163 35.6528 47.1229 34.1502 47.65C32.6475 48.1773 31.1531 48.0275 29.667 47.2006L22.115 42.9984C21.4623 42.6352 20.9386 42.1404 20.5438 41.5139C20.1491 40.8874 19.9261 40.2028 19.8746 39.4602L18.7454 22.5797L19.0203 22.5014C19.6 22.336 20.1611 22.3714 20.7035 22.6078C21.2461 22.8443 21.6613 23.216 21.949 23.7229L24.8416 28.7405L31.328 17.0834C31.4491 16.8657 31.6233 16.7245 31.8506 16.6597C32.0779 16.595 32.3004 16.6231 32.5181 16.7442C32.7357 16.8654 32.8769 17.0396 32.9417 17.2669C33.0065 17.4942 32.9783 17.7166 32.8572 17.9343L24.8619 32.3031L20.6459 24.985L21.6148 39.3156C21.6385 39.7577 21.7701 40.1717 22.0097 40.5576C22.2493 40.944 22.568 41.2478 22.9659 41.4692L30.5179 45.6714C31.5745 46.2594 32.6247 46.3552 33.6683 45.9589C34.7116 45.5625 35.5273 44.836 36.1153 43.7793L45.4752 26.958C45.5963 26.7404 45.7705 26.5991 45.9978 26.5344C46.2251 26.4696 46.4476 26.4978 46.6652 26.6189C46.8829 26.74 47.0241 26.9142 47.0889 27.1415C47.1537 27.3688 47.1255 27.5913 47.0044 27.8089L37.6445 44.6302ZM33.1766 29.1267L31.6474 28.2758L38.0292 16.8068C38.1503 16.5891 38.3245 16.4479 38.5518 16.3831C38.7791 16.3184 39.0016 16.3465 39.2192 16.4676C39.4369 16.5887 39.5781 16.763 39.6429 16.9903C39.7076 17.2176 39.6795 17.44 39.5584 17.6577L33.1766 29.1267ZM38.176 31.9085L36.6468 31.0576L42.1776 21.1178C42.2987 20.9001 42.4729 20.7589 42.7002 20.6941C42.9275 20.6294 43.15 20.6575 43.3677 20.7786C43.5853 20.8998 43.7265 21.074 43.7913 21.3013C43.8561 21.5286 43.8279 21.751 43.7068 21.9687L38.176 31.9085Z" fill="#FFCA00"/>
</g>
</svg>
