<svg width="42" height="42" viewBox="0 0 42 42" fill="none" xmlns="http://www.w3.org/2000/svg">
<path d="M36.0498 9.20498C35.918 8.14539 35.4047 7.17011 34.6059 6.46152C33.8071 5.75294 32.7776 5.35957 31.7098 5.35498H10.2986C9.23349 5.35902 8.20614 5.74993 7.40777 6.45495C6.60939 7.15997 6.09438 8.13106 5.95859 9.18748L5.43359 13.51C5.43305 14.3583 5.6139 15.1969 5.96402 15.9696C6.31413 16.7422 6.82542 17.4311 7.46359 17.99V32.27C7.46359 33.4303 7.92453 34.5431 8.745 35.3636C9.56547 36.184 10.6783 36.645 11.8386 36.645H30.1611C31.3214 36.645 32.4342 36.184 33.2547 35.3636C34.0752 34.5431 34.5361 33.4303 34.5361 32.27V17.99C35.1759 17.4319 35.6888 16.7434 36.0404 15.9707C36.3921 15.198 36.5743 14.3589 36.5748 13.51L36.0498 9.20498ZM24.5173 34.895H17.5173V27.755C17.5173 27.0588 17.7939 26.3911 18.2862 25.8988C18.7785 25.4065 19.4462 25.13 20.1423 25.13H21.8923C22.5885 25.13 23.2562 25.4065 23.7485 25.8988C24.2408 26.3911 24.5173 27.0588 24.5173 27.755V34.895ZM32.7948 32.27C32.7948 32.9662 32.5183 33.6339 32.026 34.1261C31.5337 34.6184 30.866 34.895 30.1698 34.895H26.2673V27.755C26.2673 26.5947 25.8064 25.4819 24.9859 24.6614C24.1655 23.8409 23.0527 23.38 21.8923 23.38H20.1423C18.982 23.38 17.8692 23.8409 17.0488 24.6614C16.2283 25.4819 15.7673 26.5947 15.7673 27.755V34.895H11.8386C11.1424 34.895 10.4747 34.6184 9.98244 34.1261C9.49016 33.6339 9.21359 32.9662 9.21359 32.27V19.0225C9.90184 19.3053 10.6395 19.448 11.3836 19.4425C12.2426 19.4462 13.092 19.2617 13.872 18.9019C14.6521 18.5422 15.3438 18.0158 15.8986 17.36C15.9376 17.3208 15.984 17.2898 16.035 17.2686C16.0861 17.2474 16.1408 17.2364 16.1961 17.2364C16.2514 17.2364 16.3061 17.2474 16.3572 17.2686C16.4082 17.2898 16.4546 17.3208 16.4936 17.36C17.0484 18.0158 17.7401 18.5422 18.5201 18.9019C19.3002 19.2617 20.1496 19.4462 21.0086 19.4425C21.8713 19.4453 22.7242 19.2605 23.5084 18.901C24.2925 18.5414 24.9891 18.0156 25.5498 17.36C25.5857 17.3215 25.629 17.2908 25.6772 17.2698C25.7253 17.2487 25.7773 17.2377 25.8298 17.2375C25.8851 17.2373 25.9397 17.2481 25.9908 17.2691C26.0418 17.2901 26.0882 17.321 26.1273 17.36C26.6821 18.0158 27.3739 18.5422 28.1539 18.9019C28.9339 19.2617 29.7833 19.4462 30.6423 19.4425C31.3805 19.4457 32.112 19.303 32.7948 19.0225V32.27ZM30.6423 17.6925C30.038 17.6948 29.4404 17.5662 28.8906 17.3155C28.3407 17.0647 27.8518 16.6978 27.4573 16.24C27.2603 16.0045 27.014 15.815 26.7359 15.685C26.4577 15.555 26.1544 15.4876 25.8473 15.4875H25.8298C25.5242 15.4854 25.2217 15.5501 24.9436 15.6771C24.6656 15.804 24.4185 15.9902 24.2198 16.2225C23.8139 16.6652 23.3204 17.0187 22.7706 17.2605C22.2208 17.5023 21.6267 17.6272 21.0261 17.6272C20.4255 17.6272 19.8314 17.5023 19.2816 17.2605C18.7318 17.0187 18.2383 16.6652 17.8323 16.2225C17.6287 15.9916 17.3783 15.8066 17.0977 15.68C16.8171 15.5533 16.5127 15.4878 16.2048 15.4878C15.897 15.4878 15.5926 15.5533 15.312 15.68C15.0314 15.8066 14.781 15.9916 14.5773 16.2225C14.025 16.867 13.2907 17.3294 12.4708 17.5491C11.651 17.7688 10.7838 17.7355 9.98325 17.4535C9.18266 17.1715 8.48606 16.654 7.98486 15.969C7.48366 15.2839 7.2013 14.4634 7.17484 13.615L7.69985 9.41498C7.78399 8.78072 8.09394 8.19804 8.57285 7.77376C9.05177 7.34949 9.66756 7.11205 10.3073 7.10498H31.7098C32.3517 7.10462 32.9715 7.33947 33.452 7.76512C33.9325 8.19077 34.2403 8.77772 34.3173 9.41498L34.8248 13.545C34.8156 14.6497 34.3697 15.7059 33.5844 16.4829C32.7991 17.26 31.7383 17.6948 30.6336 17.6925H30.6423Z" fill="#5B4905"/>
</svg>
