<svg width="42" height="42" viewBox="0 0 42 42" fill="none" xmlns="http://www.w3.org/2000/svg">
<path fill-rule="evenodd" clip-rule="evenodd" d="M19.152 2.1875H22.848C26.0645 2.1875 28.6125 2.1875 30.6057 2.45525C32.6567 2.73175 34.3175 3.31275 35.6282 4.62175C35.8601 4.87056 35.9863 5.19964 35.9803 5.53966C35.9743 5.87969 35.8366 6.20412 35.5961 6.44459C35.3556 6.68506 35.0312 6.82281 34.6912 6.82881C34.3511 6.83481 34.0221 6.70859 33.7732 6.47675C33.0312 5.73825 32.0162 5.29375 30.2557 5.0575C28.4585 4.816 26.0872 4.8125 22.75 4.8125H19.25C15.9127 4.8125 13.5432 4.816 11.7425 5.0575C9.98375 5.29375 8.96875 5.73825 8.2285 6.4785C7.48825 7.21875 7.04375 8.23375 6.8075 9.9925C6.566 11.7933 6.5625 14.1628 6.5625 17.5V24.5C6.5625 27.8372 6.566 30.2085 6.8075 32.0075C7.04375 33.7663 7.48825 34.7813 8.2285 35.5215C8.96875 36.2618 9.98375 36.7063 11.7442 36.9425C13.5432 37.184 15.9127 37.1875 19.25 37.1875H22.75C26.0872 37.1875 28.4585 37.184 30.2575 36.9425C32.0162 36.7063 33.0312 36.2618 33.7715 35.5215C34.9895 34.3035 35.3587 32.4118 35.4217 27.9808C35.4269 27.6327 35.57 27.3008 35.8198 27.0583C35.9434 26.9382 36.0896 26.8437 36.2498 26.78C36.41 26.7164 36.5811 26.685 36.7535 26.6875C36.9259 26.69 37.096 26.7265 37.2543 26.7948C37.4126 26.8631 37.5558 26.9619 37.6759 27.0855C37.796 27.2092 37.8906 27.3553 37.9542 27.5155C38.0178 27.6757 38.0493 27.8469 38.0467 28.0192C37.9855 32.2665 37.7107 35.2957 35.6282 37.3782C34.3175 38.6872 32.6567 39.2683 30.6057 39.5448C28.6107 39.8125 26.0645 39.8125 22.848 39.8125H19.152C15.9355 39.8125 13.3875 39.8125 11.3942 39.5448C9.34325 39.2683 7.6825 38.6872 6.37175 37.3782C5.06275 36.0675 4.48175 34.4068 4.20525 32.3558C3.9375 30.3608 3.9375 27.8145 3.9375 24.598V17.402C3.9375 14.1855 3.9375 11.6375 4.20525 9.64425C4.48175 7.59325 5.06275 5.9325 6.37175 4.62175C7.6825 3.31275 9.34325 2.73175 11.3942 2.45525C13.3892 2.1875 15.9355 2.1875 19.152 2.1875ZM31.6995 12.3305C32.137 11.8726 32.6615 11.5067 33.2424 11.2543C33.8233 11.0019 34.4487 10.8682 35.082 10.861C35.7153 10.8537 36.3436 10.9731 36.9301 11.2121C37.5166 11.4511 38.0494 11.805 38.4972 12.2528C38.945 12.7006 39.2988 13.2334 39.5379 13.8199C39.7769 14.4064 39.8963 15.0347 39.889 15.668C39.8818 16.3013 39.7481 16.9267 39.4957 17.5076C39.2433 18.0885 38.8774 18.613 38.4195 19.0505L30.1 27.3752C29.7539 27.74 29.3857 28.083 28.9975 28.4025C28.5938 28.7175 28.1598 28.9858 27.6955 29.2075C27.3035 29.3948 26.8905 29.5312 26.285 29.7325L22.638 30.9487C22.2431 31.0809 21.8192 31.1003 21.4138 31.0049C21.0085 30.9094 20.6378 30.7029 20.3433 30.4084C20.0489 30.114 19.8423 29.7433 19.7469 29.3379C19.6514 28.9326 19.6709 28.5087 19.803 28.1138L20.9947 24.5437L21.0192 24.4685C21.2222 23.8613 21.3587 23.45 21.546 23.058C21.7659 22.5959 22.0359 22.1593 22.351 21.756C22.6187 21.413 22.925 21.1068 23.3782 20.6535L23.4325 20.5992L31.6995 12.3305ZM36.5645 14.1855C36.3669 13.9878 36.1323 13.831 35.874 13.724C35.6158 13.617 35.339 13.5619 35.0595 13.5619C34.78 13.5619 34.5032 13.617 34.245 13.724C33.9867 13.831 33.7521 13.9878 33.5545 14.1855L33.236 14.504L33.2955 14.6913C33.46 15.1638 33.7732 15.7937 34.3647 16.3852C34.8881 16.9122 35.5348 17.3002 36.246 17.514L36.5645 17.1955C36.7622 16.9979 36.919 16.7633 37.026 16.505C37.133 16.2468 37.1881 15.97 37.1881 15.6905C37.1881 15.411 37.133 15.1342 37.026 14.876C36.919 14.6177 36.7622 14.3831 36.5645 14.1855ZM34.2405 19.5195C33.6006 19.1855 33.0162 18.7546 32.508 18.242C31.9954 17.7338 31.5645 17.1494 31.2305 16.5095L25.2875 22.4525C24.7607 22.9792 24.5752 23.1682 24.4195 23.3677C24.2212 23.6221 24.0526 23.8945 23.9137 24.185C23.8052 24.4142 23.7195 24.6645 23.4832 25.3715L22.7832 27.4715L23.2785 27.9667L25.3785 27.2668C26.0855 27.0305 26.3357 26.9448 26.565 26.8363C26.8543 26.6963 27.1267 26.5277 27.3822 26.3305C27.5817 26.1747 27.7707 25.9893 28.2975 25.4625L34.2405 19.5195ZM12.6875 15.75C12.6875 15.4019 12.8258 15.0681 13.0719 14.8219C13.3181 14.5758 13.6519 14.4375 14 14.4375H25.375C25.7231 14.4375 26.0569 14.5758 26.3031 14.8219C26.5492 15.0681 26.6875 15.4019 26.6875 15.75C26.6875 16.0981 26.5492 16.4319 26.3031 16.6781C26.0569 16.9242 25.7231 17.0625 25.375 17.0625H14C13.6519 17.0625 13.3181 16.9242 13.0719 16.6781C12.8258 16.4319 12.6875 16.0981 12.6875 15.75ZM12.6875 22.75C12.6875 22.4019 12.8258 22.0681 13.0719 21.8219C13.3181 21.5758 13.6519 21.4375 14 21.4375H18.375C18.7231 21.4375 19.0569 21.5758 19.3031 21.8219C19.5492 22.0681 19.6875 22.4019 19.6875 22.75C19.6875 23.0981 19.5492 23.4319 19.3031 23.6781C19.0569 23.9242 18.7231 24.0625 18.375 24.0625H14C13.6519 24.0625 13.3181 23.9242 13.0719 23.6781C12.8258 23.4319 12.6875 23.0981 12.6875 22.75ZM12.6875 29.75C12.6875 29.4019 12.8258 29.0681 13.0719 28.8219C13.3181 28.5758 13.6519 28.4375 14 28.4375H16.625C16.9731 28.4375 17.3069 28.5758 17.5531 28.8219C17.7992 29.0681 17.9375 29.4019 17.9375 29.75C17.9375 30.0981 17.7992 30.4319 17.5531 30.6781C17.3069 30.9242 16.9731 31.0625 16.625 31.0625H14C13.6519 31.0625 13.3181 30.9242 13.0719 30.6781C12.8258 30.4319 12.6875 30.0981 12.6875 29.75Z" fill="#5B4905"/>
</svg>
