<svg width="33" height="49" viewBox="0 0 33 49" fill="none" xmlns="http://www.w3.org/2000/svg">
<path d="M12.9375 29.2501L14.1962 27.8916C14.5426 27.5399 14.9611 27.2677 15.4229 27.0935C15.8847 26.9194 16.3788 26.8476 16.8711 26.8831C17.3633 26.9185 17.842 27.0604 18.2741 27.2989C18.7062 27.5374 19.0814 27.8668 19.3738 28.2644C20.3546 29.5873 20.2786 31.4232 19.1956 32.6582L12.9375 38.7501H19.901" stroke="#727272" stroke-width="1.5" stroke-linecap="round" stroke-linejoin="round"/>
<path d="M16.5 48.25C25.0259 48.25 31.9375 41.3384 31.9375 32.8125C31.9375 24.2866 25.0259 17.375 16.5 17.375C7.9741 17.375 1.0625 24.2866 1.0625 32.8125C1.0625 41.3384 7.9741 48.25 16.5 48.25Z" stroke="#727272" stroke-width="1.5"/>
<path d="M9.375 18.5625L1.0625 0.75M23.625 18.5625L31.9375 0.75M23.625 0.75L21.25 6.6875M17.6875 17.375L10.5625 0.75" stroke="#727272" stroke-width="1.5" stroke-linecap="round" stroke-linejoin="round"/>
</svg>
