<svg width="42" height="42" viewBox="0 0 42 42" fill="none" xmlns="http://www.w3.org/2000/svg">
<path fill-rule="evenodd" clip-rule="evenodd" d="M21 6.5625C15.3283 6.5625 10.927 10.115 10.1763 14.4375H14C14.3481 14.4375 14.6819 14.5758 14.9281 14.8219C15.1742 15.0681 15.3125 15.4019 15.3125 15.75V28C15.3125 28.3481 15.1742 28.6819 14.9281 28.9281C14.6819 29.1742 14.3481 29.3125 14 29.3125H8.75C7.47365 29.3125 6.24957 28.8055 5.34705 27.903C4.44453 27.0004 3.9375 25.7764 3.9375 24.5V19.25C3.93728 18.1914 4.28608 17.1623 4.92989 16.3221C5.5737 15.4818 6.47659 14.8772 7.49875 14.602C8.16725 8.47 14.1295 3.9375 21 3.9375C27.8705 3.9375 33.8328 8.47 34.5013 14.602C35.5234 14.8772 36.4263 15.4818 37.0701 16.3221C37.7139 17.1623 38.0627 18.1914 38.0625 19.25V24.5C38.0628 25.5618 37.7121 26.5938 37.0648 27.4355C36.4175 28.2771 35.51 28.8811 34.4837 29.1533C34.2056 31.139 33.219 32.9572 31.7059 34.2729C30.1928 35.5885 28.2551 36.3129 26.25 36.3125H24.2462C23.9417 37.0655 23.3847 37.6891 22.6707 38.0764C21.9568 38.4637 21.1304 38.5907 20.3331 38.4356C19.5358 38.2804 18.8173 37.8528 18.3007 37.226C17.7842 36.5992 17.5017 35.8122 17.5017 35C17.5017 34.1878 17.7842 33.4008 18.3007 32.774C18.8173 32.1472 19.5358 31.7196 20.3331 31.5644C21.1304 31.4093 21.9568 31.5363 22.6707 31.9236C23.3847 32.3109 23.9417 32.9345 24.2462 33.6875H26.25C27.5304 33.6878 28.7735 33.256 29.778 32.462C30.7825 31.6681 31.4898 30.5584 31.7853 29.3125H28C27.6519 29.3125 27.3181 29.1742 27.0719 28.9281C26.8258 28.6819 26.6875 28.3481 26.6875 28V15.75C26.6875 15.4019 26.8258 15.0681 27.0719 14.8219C27.3181 14.5758 27.6519 14.4375 28 14.4375H31.8237C31.073 10.115 26.6717 6.5625 21 6.5625ZM8.75 17.0625C7.5425 17.0625 6.5625 18.0425 6.5625 19.25V24.5C6.5625 25.7075 7.5425 26.6875 8.75 26.6875H12.6875V17.0625H8.75ZM35.4375 19.25C35.4375 18.0425 34.4575 17.0625 33.25 17.0625H29.3125V26.6875H33.25C34.4575 26.6875 35.4375 25.7075 35.4375 24.5V19.25Z" fill="#5B4905"/>
</svg>
